# Blender 3.5.1
# www.blender.org
mtllib wheel_test.mtl
o wheel
v 0.810660 0.112500 -0.250000
v 0.500000 0.112500 0.500000
v 1.250000 0.487500 0.189340
v 1.250000 0.112500 0.189340
v 1.250000 0.487500 0.810660
v 0.810660 0.487500 1.250000
v 0.810660 0.112500 1.250000
v -0.250000 0.112500 0.810660
v 0.500000 0.487500 0.500000
v 0.758883 0.112500 -0.125000
v 1.125000 0.112500 0.241117
v 1.125000 0.112500 0.758884
v 1.250000 0.112500 0.810660
v 0.189340 0.112500 1.250000
v 0.241116 0.112500 1.125000
v 0.758883 0.112500 1.125000
v -0.250000 0.112500 0.189340
v -0.125000 0.112500 0.758883
v -0.125000 0.112500 0.241116
v 0.241116 0.112500 -0.125000
v 0.189340 0.112500 -0.250000
v 0.758884 0.487500 -0.125000
v 0.241117 0.487500 -0.125000
v 0.189340 0.487500 -0.250000
v -0.250000 0.487500 0.189340
v -0.125000 0.487500 0.241117
v -0.125000 0.487500 0.758884
v 0.241117 0.487500 1.125000
v -0.250000 0.487500 0.810660
v 0.189340 0.487500 1.250000
v 0.758884 0.487500 1.125000
v 1.125000 0.487500 0.758884
v 1.125000 0.487500 0.241117
v 0.810660 0.487500 -0.250000
v 0.375000 0.047382 0.869303
v 0.625000 0.047382 0.869303
v 0.375000 0.112500 0.500000
v 0.625000 0.112500 0.500000
v 0.687500 0.112500 0.687500
v 0.312500 0.112500 0.687500
v 0.687500 0.047382 1.056803
v 0.312500 0.047382 1.056803
v 0.250000 0.079817 1.248573
v 0.750000 0.079817 1.248573
v 0.250000 0.112500 0.875000
v 0.750000 0.112500 0.875000
v 0.187500 0.112500 1.250000
v 0.812500 0.112500 1.250000
v 0.187500 0.091124 1.308731
v 0.812500 0.091124 1.308731
v 0.812500 0.129247 1.312500
v 0.187500 0.129247 1.312500
v 0.812500 0.237500 1.250000
v 0.187500 0.237500 1.250000
v 0.672748 0.047382 0.849525
v 0.849525 0.047382 0.672748
v 0.411612 0.112500 0.588388
v 0.588388 0.112500 0.411612
v 0.765165 0.112500 0.500000
v 0.500000 0.112500 0.765165
v 1.026302 0.047382 0.761137
v 0.761136 0.047382 1.026302
v 0.852544 0.079817 1.206098
v 1.206098 0.079817 0.852544
v 0.588388 0.112500 0.941942
v 0.941942 0.112500 0.588388
v 0.809359 0.112500 1.251301
v 1.251301 0.112500 0.809359
v 0.850888 0.091124 1.292830
v 1.292830 0.091124 0.850888
v 1.295495 0.129247 0.853553
v 0.853553 0.129247 1.295495
v 1.251301 0.237500 0.809359
v 0.809359 0.237500 1.251301
v 0.869303 0.047382 0.625000
v 0.869303 0.047382 0.375000
v 0.500000 0.112500 0.625000
v 0.500000 0.112500 0.375000
v 0.687500 0.112500 0.312500
v 0.687500 0.112500 0.687500
v 1.056803 0.047382 0.312500
v 1.056803 0.047382 0.687500
v 1.248573 0.079817 0.750000
v 1.248573 0.079817 0.250000
v 0.875000 0.112500 0.750000
v 0.875000 0.112500 0.250000
v 1.250000 0.112500 0.812500
v 1.250000 0.112500 0.187500
v 1.308731 0.091124 0.812500
v 1.308731 0.091124 0.187500
v 1.312500 0.129247 0.187500
v 1.312500 0.129247 0.812500
v 1.250000 0.237500 0.187500
v 1.250000 0.237500 0.812500
v 0.849525 0.047382 0.327252
v 0.672748 0.047382 0.150475
v 0.588388 0.112500 0.588388
v 0.411612 0.112500 0.411612
v 0.500000 0.112500 0.234835
v 0.765165 0.112500 0.500000
v 0.761137 0.047382 -0.026302
v 1.026302 0.047382 0.238864
v 1.206098 0.079817 0.147456
v 0.852544 0.079817 -0.206098
v 0.941942 0.112500 0.411612
v 0.588388 0.112500 0.058058
v 1.251301 0.112500 0.190641
v 0.809359 0.112500 -0.251301
v 1.292830 0.091124 0.149112
v 0.850888 0.091124 -0.292830
v 0.853553 0.129247 -0.295495
v 1.295495 0.129247 0.146447
v 0.809359 0.237500 -0.251301
v 1.251301 0.237500 0.190641
v 0.625000 0.047382 0.130697
v 0.375000 0.047382 0.130697
v 0.625000 0.112500 0.500000
v 0.375000 0.112500 0.500000
v 0.312500 0.112500 0.312500
v 0.687500 0.112500 0.312500
v 0.312500 0.047382 -0.056803
v 0.687500 0.047382 -0.056803
v 0.750000 0.079817 -0.248573
v 0.250000 0.079817 -0.248573
v 0.750000 0.112500 0.125000
v 0.250000 0.112500 0.125000
v 0.812500 0.112500 -0.250000
v 0.187500 0.112500 -0.250000
v 0.812500 0.091124 -0.308731
v 0.187500 0.091124 -0.308731
v 0.187500 0.129247 -0.312500
v 0.812500 0.129247 -0.312500
v 0.187500 0.237500 -0.250000
v 0.812500 0.237500 -0.250000
v 0.327252 0.047382 0.150475
v 0.150475 0.047382 0.327252
v 0.588388 0.112500 0.411612
v 0.411612 0.112500 0.588388
v 0.234835 0.112500 0.500000
v 0.500000 0.112500 0.234835
v -0.026302 0.047382 0.238863
v 0.238864 0.047382 -0.026302
v 0.147456 0.079817 -0.206098
v -0.206098 0.079817 0.147456
v 0.411612 0.112500 0.058058
v 0.058058 0.112500 0.411612
v 0.190641 0.112500 -0.251301
v -0.251301 0.112500 0.190641
v 0.149112 0.091124 -0.292830
v -0.292830 0.091124 0.149112
v -0.295495 0.129247 0.146447
v 0.146447 0.129247 -0.295495
v -0.251301 0.237500 0.190641
v 0.190641 0.237500 -0.251301
v 0.130697 0.047382 0.375000
v 0.130697 0.047382 0.625000
v 0.500000 0.112500 0.375000
v 0.500000 0.112500 0.625000
v 0.312500 0.112500 0.687500
v 0.312500 0.112500 0.312500
v -0.056803 0.047382 0.687500
v -0.056803 0.047382 0.312500
v -0.248573 0.079817 0.250000
v -0.248573 0.079817 0.750000
v 0.125000 0.112500 0.250000
v 0.125000 0.112500 0.750000
v -0.250000 0.112500 0.187500
v -0.250000 0.112500 0.812500
v -0.308730 0.091124 0.187500
v -0.308731 0.091124 0.812500
v -0.312500 0.129247 0.812500
v -0.312500 0.129247 0.187500
v -0.250000 0.237500 0.812500
v -0.250000 0.237500 0.187500
v 0.150475 0.047382 0.672748
v 0.327252 0.047382 0.849525
v 0.411612 0.112500 0.411612
v 0.588388 0.112500 0.588388
v 0.500000 0.112500 0.765165
v 0.234835 0.112500 0.500000
v 0.238863 0.047382 1.026302
v -0.026302 0.047382 0.761136
v -0.206098 0.079817 0.852544
v 0.147456 0.079817 1.206098
v 0.058058 0.112500 0.588388
v 0.411612 0.112500 0.941942
v -0.251301 0.112500 0.809359
v 0.190641 0.112500 1.251301
v -0.292830 0.091124 0.850888
v 0.149112 0.091124 1.292830
v 0.146447 0.129247 1.295495
v -0.295495 0.129247 0.853553
v 0.190641 0.237500 1.251301
v -0.251301 0.237500 0.809359
vn -0.0000 -0.0000 -1.0000
vn 0.7071 -0.0000 -0.7071
vn -0.0000 -1.0000 -0.0000
vn 1.0000 -0.0000 -0.0000
vn 0.7071 -0.0000 0.7071
vn -0.0000 -0.0000 1.0000
vn -0.7071 -0.0000 0.7071
vn -1.0000 -0.0000 -0.0000
vn -0.7071 -0.0000 -0.7071
vn -0.0000 1.0000 -0.0000
vn -0.0000 -0.9848 -0.1736
vn -0.0000 -0.9962 -0.0872
vn -0.0000 0.9397 0.3420
vn -0.0000 0.5000 0.8660
vn -0.1228 -0.9848 -0.1228
vn -0.0616 -0.9962 -0.0616
vn 0.2418 0.9397 0.2418
vn 0.6124 0.5000 0.6124
vn -0.1736 -0.9848 -0.0000
vn -0.0872 -0.9962 -0.0000
vn 0.3420 0.9397 -0.0000
vn 0.8660 0.5000 -0.0000
vn -0.1228 -0.9848 0.1228
vn -0.0616 -0.9962 0.0616
vn 0.2418 0.9397 -0.2418
vn 0.6124 0.5000 -0.6124
vn -0.0000 -0.9848 0.1736
vn -0.0000 -0.9962 0.0872
vn -0.0000 0.9397 -0.3420
vn -0.0000 0.5000 -0.8660
vn 0.1228 -0.9848 0.1228
vn 0.0616 -0.9962 0.0616
vn -0.2418 0.9397 -0.2418
vn -0.6124 0.5000 -0.6124
vn 0.1736 -0.9848 -0.0000
vn 0.0872 -0.9962 -0.0000
vn -0.3420 0.9397 -0.0000
vn -0.8660 0.5000 -0.0000
vn 0.1228 -0.9848 -0.1228
vn 0.0616 -0.9962 -0.0616
vn -0.2418 0.9397 0.2418
vn -0.6124 0.5000 0.6124
vt 0.000000 0.812500
vt 0.312500 0.812500
vt 0.312500 0.688420
vt 0.312500 0.999080
vt 0.687500 0.687500
vt 0.000000 1.000000
vt 0.312500 1.000000
vt 0.311580 1.000000
vt 0.000920 1.000000
vt 0.000000 0.812500
vt 0.312500 0.812500
vt 0.312500 0.688420
vt 0.312500 0.999080
vt 0.000000 1.000000
vt 0.312500 1.000000
vt 0.311580 1.000000
vt 0.000920 1.000000
vt 0.000000 1.000000
vt 0.312500 1.000000
vt 0.311580 1.000000
vt 0.000920 1.000000
vt 0.000000 0.812500
vt 0.312500 0.812500
vt 0.312500 0.688420
vt 0.312500 0.999080
vt 0.000000 0.812500
vt 0.312500 0.812500
vt 0.312500 0.688420
vt 0.312500 0.999080
vt 0.687500 0.687500
vt 0.375000 0.714308
vt 0.375000 0.973191
vt 0.558059 1.000000
vt 0.375000 0.714308
vt 0.375000 0.973191
vt 0.375000 0.816941
vt 0.375000 0.714308
vt 0.375000 0.973191
vt 0.375000 0.558058
vt 0.000000 0.812500
vt 0.312500 0.812500
vt 0.312500 0.688420
vt 0.312500 0.999080
vt 0.000000 0.812500
vt 0.312500 0.812500
vt 0.312500 0.688420
vt 0.312500 0.999080
vt 0.375000 0.714308
vt 0.375000 0.973191
vt 0.816942 0.375000
vt 0.375000 0.714308
vt 0.375000 0.973191
vt 0.558059 0.375000
vt 0.000000 0.812500
vt 0.312500 0.812500
vt 0.312500 0.688420
vt 0.312500 0.999080
vt 0.375000 0.714308
vt 0.375000 0.973191
vt 1.000000 0.558059
vt 0.375000 0.714308
vt 0.375000 0.973191
vt 1.000000 0.816942
vt 0.375000 0.973191
vt 0.375000 0.714308
vt 0.816942 1.000000
vt 0.312500 0.812500
vt 0.312500 0.999080
vt 0.000000 0.812500
vt 0.312500 0.688420
vt 0.026808 0.937500
vt 0.285692 0.937500
vt 0.816942 1.000000
vt 0.285692 0.937500
vt 0.026808 0.937500
vt 0.558058 1.000000
vt 0.312500 1.000000
vt 0.000000 1.000000
vt 0.311580 1.000000
vt 0.000920 1.000000
vt 0.000000 1.000000
vt 0.312500 1.000000
vt 0.311580 1.000000
vt 0.000920 1.000000
vt 0.285692 0.937500
vt 0.026808 0.937500
vt 0.375000 0.816941
vt 0.285692 0.937500
vt 0.026808 0.937500
vt 0.375000 0.558058
vt 0.026808 0.937500
vt 0.285692 0.937500
vt 0.558058 0.375000
vt 0.000000 1.000000
vt 0.312500 1.000000
vt 0.311580 1.000000
vt 0.000920 1.000000
vt 0.000000 1.000000
vt 0.312500 1.000000
vt 0.000920 1.000000
vt 0.311580 1.000000
vt 0.285692 0.937500
vt 0.026808 0.937500
vt 0.816942 0.375000
vt 0.285692 0.937500
vt 0.026808 0.937500
vt 1.000000 0.558058
vt 0.285692 0.937500
vt 0.026808 0.937500
vt 1.000000 0.816941
vt 0.000000 1.000000
vt 0.312500 1.000000
vt 0.000920 1.000000
vt 0.311580 1.000000
vt 0.125000 0.593750
vt 0.250000 0.593750
vt 0.125000 0.406250
vt 0.250000 0.406250
vt 0.218750 0.406250
vt 0.031250 0.406250
vt 0.218750 0.593750
vt 0.031250 0.593750
vt 0.031250 0.593750
vt 0.281250 0.593750
vt 0.031250 0.406250
vt 0.281250 0.406250
vt 0.000000 0.687500
vt 0.312500 0.687500
vt 0.000000 0.656250
vt 0.312500 0.656250
vt 0.312500 0.718750
vt 0.000000 0.718750
vt 0.312500 0.781250
vt 0.000000 0.781250
vt 0.125000 0.593750
vt 0.250000 0.593750
vt 0.125000 0.406250
vt 0.250000 0.406250
vt 0.218750 0.406250
vt 0.031250 0.406250
vt 0.218750 0.593750
vt 0.031250 0.593750
vt 0.031250 0.593750
vt 0.281250 0.593750
vt 0.031250 0.406250
vt 0.281250 0.406250
vt 0.000000 0.687500
vt 0.312500 0.687500
vt 0.000000 0.656250
vt 0.312500 0.656250
vt 0.312500 0.718750
vt 0.000000 0.718750
vt 0.312500 0.781250
vt 0.000000 0.781250
vt 0.125000 0.593750
vt 0.250000 0.593750
vt 0.125000 0.406250
vt 0.250000 0.406250
vt 0.218750 0.406250
vt 0.031250 0.406250
vt 0.218750 0.593750
vt 0.031250 0.593750
vt 0.031250 0.593750
vt 0.281250 0.593750
vt 0.031250 0.406250
vt 0.281250 0.406250
vt 0.000000 0.687500
vt 0.312500 0.687500
vt 0.000000 0.656250
vt 0.312500 0.656250
vt 0.312500 0.718750
vt 0.000000 0.718750
vt 0.312500 0.781250
vt 0.000000 0.781250
vt 0.125000 0.593750
vt 0.250000 0.593750
vt 0.125000 0.406250
vt 0.250000 0.406250
vt 0.218750 0.406250
vt 0.031250 0.406250
vt 0.218750 0.593750
vt 0.031250 0.593750
vt 0.031250 0.593750
vt 0.281250 0.593750
vt 0.031250 0.406250
vt 0.281250 0.406250
vt 0.000000 0.687500
vt 0.312500 0.687500
vt 0.000000 0.656250
vt 0.312500 0.656250
vt 0.312500 0.718750
vt 0.000000 0.718750
vt 0.312500 0.781250
vt 0.000000 0.781250
vt 0.125000 0.593750
vt 0.250000 0.593750
vt 0.125000 0.406250
vt 0.250000 0.406250
vt 0.218750 0.406250
vt 0.031250 0.406250
vt 0.218750 0.593750
vt 0.031250 0.593750
vt 0.031250 0.593750
vt 0.281250 0.593750
vt 0.031250 0.406250
vt 0.281250 0.406250
vt 0.000000 0.687500
vt 0.312500 0.687500
vt 0.000000 0.656250
vt 0.312500 0.656250
vt 0.312500 0.718750
vt 0.000000 0.718750
vt 0.312500 0.781250
vt 0.000000 0.781250
vt 0.125000 0.593750
vt 0.250000 0.593750
vt 0.125000 0.406250
vt 0.250000 0.406250
vt 0.218750 0.406250
vt 0.031250 0.406250
vt 0.218750 0.593750
vt 0.031250 0.593750
vt 0.031250 0.593750
vt 0.281250 0.593750
vt 0.031250 0.406250
vt 0.281250 0.406250
vt 0.000000 0.687500
vt 0.312500 0.687500
vt 0.000000 0.656250
vt 0.312500 0.656250
vt 0.312500 0.718750
vt 0.000000 0.718750
vt 0.312500 0.781250
vt 0.000000 0.781250
vt 0.125000 0.593750
vt 0.250000 0.593750
vt 0.125000 0.406250
vt 0.250000 0.406250
vt 0.218750 0.406250
vt 0.031250 0.406250
vt 0.218750 0.593750
vt 0.031250 0.593750
vt 0.031250 0.593750
vt 0.281250 0.593750
vt 0.031250 0.406250
vt 0.281250 0.406250
vt 0.000000 0.687500
vt 0.312500 0.687500
vt 0.000000 0.656250
vt 0.312500 0.656250
vt 0.312500 0.718750
vt 0.000000 0.718750
vt 0.312500 0.781250
vt 0.000000 0.781250
vt 0.125000 0.593750
vt 0.250000 0.593750
vt 0.125000 0.406250
vt 0.250000 0.406250
vt 0.218750 0.406250
vt 0.031250 0.406250
vt 0.218750 0.593750
vt 0.031250 0.593750
vt 0.031250 0.593750
vt 0.281250 0.593750
vt 0.031250 0.406250
vt 0.281250 0.406250
vt 0.000000 0.687500
vt 0.312500 0.687500
vt 0.000000 0.656250
vt 0.312500 0.656250
vt 0.312500 0.718750
vt 0.000000 0.718750
vt 0.312500 0.781250
vt 0.000000 0.781250
s 0
usemtl polisher_wheel
f 24/77/1 34/111/1 1/1/1 21/67/1
f 34/112/2 3/6/2 4/10/2 1/2/2
f 20/64/3 21/68/3 1/3/3 10/31/3
f 3/7/4 5/14/4 13/40/4 4/11/4
f 10/32/3 1/4/3 4/12/3 11/34/3
f 5/15/5 6/18/5 7/22/5 13/41/5
f 11/35/3 4/13/3 13/42/3 12/37/3
f 6/19/6 30/98/6 14/44/6 7/23/6
f 12/38/3 13/43/3 7/24/3 16/51/3
f 30/99/7 29/94/7 8/26/7 14/45/7
f 16/52/3 7/25/3 14/46/3 15/48/3
f 29/95/8 25/81/8 17/54/8 8/27/8
f 15/49/3 14/47/3 8/28/3 18/58/3
f 25/82/9 24/78/9 21/69/9 17/55/9
f 18/59/3 8/29/3 17/56/3 19/61/3
f 19/62/3 17/57/3 21/70/3 20/65/3
f 2/5/3 19/63/3 20/66/3
f 2/5/3 18/60/3 19/63/3
f 2/5/3 15/50/3 18/60/3
f 2/5/3 16/53/3 15/50/3
f 2/5/3 12/39/3 16/53/3
f 2/5/3 11/36/3 12/39/3
f 33/108/10 3/8/10 34/113/10 22/71/10
f 32/105/10 5/16/10 3/9/10 33/109/10
f 31/102/10 6/20/10 5/17/10 32/106/10
f 2/5/3 10/33/3 11/36/3
f 27/88/10 29/96/10 30/100/10 28/91/10
f 28/92/10 30/101/10 6/21/10 31/103/10
f 26/85/10 25/83/10 29/97/10 27/89/10
f 23/74/10 24/79/10 25/84/10 26/86/10
f 2/5/3 20/66/3 10/33/3
f 22/72/10 34/114/10 24/80/10 23/75/10
f 35/115/11 37/117/11 38/118/11 36/116/11
f 42/122/11 40/120/11 39/119/11 41/121/11
f 43/123/12 45/125/12 46/126/12 44/124/12
f 47/127/13 49/129/13 50/130/13 48/128/13
f 54/134/14 52/132/14 51/131/14 53/133/14
f 55/135/15 57/137/15 58/138/15 56/136/15
f 62/142/15 60/140/15 59/139/15 61/141/15
f 63/143/16 65/145/16 66/146/16 64/144/16
f 67/147/17 69/149/17 70/150/17 68/148/17
f 74/154/18 72/152/18 71/151/18 73/153/18
f 75/155/19 77/157/19 78/158/19 76/156/19
f 82/162/19 80/160/19 79/159/19 81/161/19
f 83/163/20 85/165/20 86/166/20 84/164/20
f 87/167/21 89/169/21 90/170/21 88/168/21
f 94/174/22 92/172/22 91/171/22 93/173/22
f 95/175/23 97/177/23 98/178/23 96/176/23
f 102/182/23 100/180/23 99/179/23 101/181/23
f 103/183/24 105/185/24 106/186/24 104/184/24
f 107/187/25 109/189/25 110/190/25 108/188/25
f 114/194/26 112/192/26 111/191/26 113/193/26
f 115/195/27 117/197/27 118/198/27 116/196/27
f 122/202/27 120/200/27 119/199/27 121/201/27
f 123/203/28 125/205/28 126/206/28 124/204/28
f 127/207/29 129/209/29 130/210/29 128/208/29
f 134/214/30 132/212/30 131/211/30 133/213/30
f 135/215/31 137/217/31 138/218/31 136/216/31
f 142/222/31 140/220/31 139/219/31 141/221/31
f 143/223/32 145/225/32 146/226/32 144/224/32
f 147/227/33 149/229/33 150/230/33 148/228/33
f 154/234/34 152/232/34 151/231/34 153/233/34
f 155/235/35 157/237/35 158/238/35 156/236/35
f 162/242/35 160/240/35 159/239/35 161/241/35
f 163/243/36 165/245/36 166/246/36 164/244/36
f 167/247/37 169/249/37 170/250/37 168/248/37
f 174/254/38 172/252/38 171/251/38 173/253/38
f 175/255/39 177/257/39 178/258/39 176/256/39
f 182/262/39 180/260/39 179/259/39 181/261/39
f 183/263/40 185/265/40 186/266/40 184/264/40
f 187/267/41 189/269/41 190/270/41 188/268/41
f 194/274/42 192/272/42 191/271/42 193/273/42
usemtl polisher_wood
f 9/30/10 22/73/10 23/76/10
f 9/30/10 23/76/10 26/87/10
f 9/30/10 26/87/10 27/90/10
f 9/30/10 28/93/10 31/104/10
f 9/30/10 27/90/10 28/93/10
f 9/30/10 31/104/10 32/107/10
f 9/30/10 32/107/10 33/110/10
f 9/30/10 33/110/10 22/73/10
